<svg width="40" height="41" viewBox="0 0 40 41" fill="none" xmlns="http://www.w3.org/2000/svg">
<path d="M11.1111 0C4.98444 0 0 5.10906 0 11.3889V29.6111C0 35.8909 4.98444 41 11.1111 41H28.8889C35.0156 41 40 35.8909 40 29.6111V11.3889C40 5.10906 35.0156 0 28.8889 0H11.1111ZM11.1111 4.55556H28.8889C32.5644 4.55556 35.5556 7.62144 35.5556 11.3889V29.6111C35.5556 33.3786 32.5644 36.4444 28.8889 36.4444H11.1111C7.43556 36.4444 4.44444 33.3786 4.44444 29.6111V11.3889C4.44444 7.62144 7.43556 4.55556 11.1111 4.55556ZM31.1111 6.83333C30.5217 6.83333 29.9565 7.07331 29.5398 7.50048C29.123 7.92765 28.8889 8.50701 28.8889 9.11111C28.8889 9.71521 29.123 10.2946 29.5398 10.7217C29.9565 11.1489 30.5217 11.3889 31.1111 11.3889C31.7005 11.3889 32.2657 11.1489 32.6825 10.7217C33.0992 10.2946 33.3333 9.71521 33.3333 9.11111C33.3333 8.50701 33.0992 7.92765 32.6825 7.50048C32.2657 7.07331 31.7005 6.83333 31.1111 6.83333ZM20 9.11111C13.8733 9.11111 8.88889 14.2202 8.88889 20.5C8.88889 26.7798 13.8733 31.8889 20 31.8889C26.1267 31.8889 31.1111 26.7798 31.1111 20.5C31.1111 14.2202 26.1267 9.11111 20 9.11111ZM20 13.6667C23.6756 13.6667 26.6667 16.7326 26.6667 20.5C26.6667 24.2674 23.6756 27.3333 20 27.3333C16.3244 27.3333 13.3333 24.2674 13.3333 20.5C13.3333 16.7326 16.3244 13.6667 20 13.6667Z" fill="#D2AB67"/>
</svg>
